<?xml version="1.0" encoding="utf-8"?>
<!-- Generator: Adobe Illustrator 21.0.2, SVG Export Plug-In . SVG Version: 6.00 Build 0)  -->
<svg version="1.1" id="Capa_1" xmlns="http://www.w3.org/2000/svg" xmlns:xlink="http://www.w3.org/1999/xlink" x="0px" y="0px"
	 viewBox="0 0 207 383" style="enable-background:new 0 0 207 383;" xml:space="preserve">
    <style>
        @keyframes footprint1 {
        0% { opacity: 1; }
        12.5% { opacity: 0; }
        25% { opacity: 1; }
      }
		@keyframes llema1 {
        5% { opacity: 1; }
        14.5% { opacity: 0; }
        25% { opacity: 1; }
      }
        @keyframes footprint2 {
        25% { opacity: 1; }
        37.5% { opacity: 0; }
        50% { opacity: 1; }
      }
	  	@keyframes llema2 {
        30% { opacity: 1; }
        39.5% { opacity: 0; }
        50% { opacity: 1; }
      }
        @keyframes footprint3 {
        50% { opacity: 1; }
        67.5% { opacity: 0; }
        75% { opacity: 1; }
      }
        @keyframes llema3 {
        55% { opacity: 1; }
        69.5% { opacity: 0; }
        75% { opacity: 1; }
      }
        @keyframes footprint4 {
        75% { opacity: 1; }
        87.5% { opacity: 0; }
        100% { opacity: 1; }
      }
	    @keyframes llema4 {
        80% { opacity: 1; }
        89.5% { opacity: 0; }
        100% { opacity: 1; }
      }

      g{fill:#FFFFFF;}
      .animate {  animation-duration: 4s; animation-iteration-count: infinite; animation-timing-function: ease; }
      .huella1 { animation-name: footprint1; }
      .huella2 { animation-name: footprint2; }
      .huella3 { animation-name: footprint3; }
      .huella4 { animation-name: footprint4; }

	    .llema1 {  animation-name: llema1; }
		.llema2 {  animation-name: llema2; }
		.llema3 {  animation-name: llema3; }
		.llema4 {  animation-name: llema4; }

    </style>
<title>footprints-splash</title>
<g>
	<path  class="huella1 animate" d="M73.9,383c-3.6-1.9-6.6-4.7-8.8-8.1c-4.6-6.6-11.5-8.5-19-9.4c-2.6-0.3-5.2-1-7.6-2c-4.1-1.7-6.1-6.4-4.4-10.6
		c0.3-0.7,0.6-1.3,1.1-1.9c5.7-7.5,13.1-12.9,22.3-15.1c11.8-2.8,20.9,2.7,24.6,14.2c2.3,7.3,3.1,15.1,2.4,22.7
		c-0.3,4.2-2,7.8-5.8,10H73.9z"/>
	<path class="llema1 animate" d="M100.6,306.1c5.1,0,8.2,3.1,8.6,8.7c0.6,8.5-8.4,18.6-17,19c-4.6,0.2-7.7-2.2-8.7-6.8
		C81.6,317.9,91.2,306.1,100.6,306.1z"/>
	<path class="llema1 animate" d="M83.5,304.7c-0.3,5.7-2,11.1-6.5,15.2c-5.5,5-12,3.4-14.4-3.5c-2.8-7.8-0.7-14.8,4.6-20.8
		c2.5-2.8,5.9-4.4,9.8-3c4.1,1.5,5.5,5.1,6.4,9C83.4,302.6,83.5,303.6,83.5,304.7z"/>
	<path class="llema1 animate" d="M113.6,344.9c-0.1,8.5-10.5,17.2-18.8,15.7c-5.3-0.9-7.7-5-6.6-10.7c1.5-7.2,10.3-13.9,17.6-13.4
		C110.9,336.8,113.6,339.8,113.6,344.9z"/>
	<path class="llema1 animate" d="M55.9,319.2c0.1,5.5-1.3,9.5-4.2,12.9c-3.7,4.3-9,4.1-12.4-0.3c-5.1-6.6-4.5-17.1,1.4-23.1
		c2.9-3.1,7.8-3.3,11-0.3c0.3,0.3,0.6,0.6,0.9,1C54.7,312.2,55.9,315.6,55.9,319.2z"/>
</g>
<g>
	<path class="huella2 animate" d="M3,220c4.8-7,11.5-12.5,19.4-15.7c7.9-3.4,15.7-3.1,22.6,2.4c1.9,1.5,3.4,3.4,4.4,5.5
		c4.3,9.4,5.7,19.9,3.9,30.1c-0.5,3.3-2.1,6.3-5.8,7.2s-6.8-0.6-9.3-3.2c-1.3-1.4-2.6-2.9-3.7-4.5c-4.3-5.8-10.1-8.5-17.1-9.1
		c-1.5-0.1-3-0.4-4.4-0.6c-4.3-0.8-8-2.6-10-6.8L3,220z"/>
	<path class="llema2 animate" d="M52.7,191.4c0-7.9,7.3-16.8,15-18.4c5.9-1.2,10.3,2.1,10.8,8.1c0.7,8.1-7.3,18.1-15.4,19.2
		C56.7,201.3,52.7,197.9,52.7,191.4z"/>
	<path class="llema2 animate" d="M52.8,171.2c0.1,4.9-1.5,9.7-4.6,13.5c-2.7,3.4-6.3,5.7-10.8,4.4c-4.2-1.2-5.7-5-6.4-8.9
		c-1.1-6,0.6-11.5,4.1-16.4c2.8-3.8,7.5-5.8,11-4.5c4.2,1.6,5.7,5.2,6.4,9.3C52.7,169.5,52.8,170.3,52.8,171.2z"/>
	<path class="llema2 animate" d="M82.9,211.6c0,8.8-10.5,17.4-19.2,15.8c-4.6-0.9-7-4.4-6.3-9.6c1-7.9,10.8-15.4,18.6-14.2
		C80.8,204.2,83,206.8,82.9,211.6z"/>
	<path class="llema2 animate" d="M25.3,186.7c0.1,5-1.3,9.2-4.5,12.6c-3.8,3.9-8.7,3.6-12.1-0.6c-5.1-6.5-4.6-16.9,1.1-22.9
		c3.8-3.9,9.3-3.5,12.5,1C24.4,179.7,25.4,183.2,25.3,186.7z"/>
</g>
<g>
	<path class="huella3 animate" d="M174.3,204.7c-0.6,3.7-0.7,6.6-1.5,9.2c-2,7.1-8.5,9-14,3.9c-1.7-1.6-3.2-3.3-4.5-5.2
		c-4.2-5.9-10.2-8.4-17.1-9.2c-2.8-0.3-5.6-0.8-8.2-1.7c-6.5-2.2-8.1-9.1-3.7-14.3c4.6-5.3,10.4-9.6,16.9-12.4
		c4.6-2.1,9.8-2.6,14.7-1.5c7.7,1.7,12.4,6.7,14.3,14C172.7,193.5,173.4,199.6,174.3,204.7z"/>
	<path class="llema3 animate" d="M203,185.6c-0.7,1.2-1.4,2.4-2.1,3.6c-3.8,5.8-8.8,9.6-16.1,9.2c-4.9-0.2-7.9-3.8-7.6-8.6
		c0.6-8.7,10.7-16.6,19.2-15.3c3.4,0.5,5.1,2.7,6.6,5.4L203,185.6z"/>
	<path class="llema3 animate" d="M198.3,153.1c0,8.2-7.4,17-15.3,18.2c-6.3,1-10.7-2.9-10.5-9.2c0.3-7.5,6.7-15.8,14-17.8
		C193.4,142.3,198.3,146,198.3,153.1z"/>
	<path class="llema3 animate" d="M150.5,148.3c0.3-5.7,1.8-10.4,5.1-14.3c2.6-3.1,6-4.8,10.1-3.9c3.8,0.9,5.6,4,6.4,7.4c1.7,6.8-0.2,14-5,19.1
		c-2.5,2.8-5.7,4.5-9.7,3.4s-5.2-4.3-6.2-7.6C150.9,151.2,150.6,149.8,150.5,148.3z"/>
	<path class="llema3 animate" d="M145.3,158.2c0,4.1-1.5,8.2-4.1,11.4c-3.7,4.4-9,4.4-12.6,0c-5.2-6.4-4.4-17.9,1.7-23.4
		c3.2-2.9,8.1-2.7,11.1,0.4c0.2,0.2,0.4,0.4,0.6,0.7C144.2,150.5,145.4,154.3,145.3,158.2z"/>
</g>
<g>
	<path class="huella4 animate" d="M157.3,77.6c-0.3,2.9-0.7,5.8-1.4,8.7c-2,7-8.5,8.7-13.9,3.8c-1.3-1.1-2.4-2.4-3.3-3.7
		c-4.8-7.1-11.5-10.2-19.8-10.9c-2.7-0.3-5.4-0.9-7.9-2c-4.2-1.7-6.2-6.6-4.5-10.8c0.3-0.6,0.6-1.2,1-1.8
		c5.6-7.2,12.8-12.5,21.6-14.8c12.9-3.5,23,3.3,26.1,17C156.3,67.8,156.6,72.8,157.3,77.6z"/>
	<path class="llema4 animate" d="M181.4,25.5c-0.1,8.3-7.8,17.1-16,18.2c-5.6,0.7-9.5-2.8-9.7-8.8c-0.3-7.7,7.1-17.1,14.7-18.6
		C177.1,15,181.4,18.5,181.4,25.5z"/>
	<path class="llema4 animate" d="M156,13.5c-0.8,7.7-2.5,14.1-9,17.9c-4.3,2.5-8.3,1.5-10.9-2.6c-4.7-7.2-2-20,5.3-24.8
		c5.2-3.4,10.2-2.2,12.8,3.5C155,9.4,155.6,11.4,156,13.5z"/>
	<path class="llema4 animate" d="M177.2,46.4c6.4,0,9.9,4.3,8.5,10.6c-1.9,8.4-11.6,15.1-19.2,13.3c-4.1-0.7-6.9-4.6-6.2-8.8
		C161.2,53.8,169.4,46.5,177.2,46.4z"/>
	<path class="llema4 animate" d="M128.4,30.2c0.1,4.5-1.6,8.8-4.7,12.1c-3.7,3.9-8.7,3.6-12.1-0.6c-5.2-6.5-4.5-17.5,1.5-23.2
		c3-3.1,7.9-3.1,11-0.1c0.4,0.4,0.7,0.8,1,1.2C127.3,22.8,128.5,26.5,128.4,30.2z"/>
</g>
</svg>
